REM DIRINDEX 1\2,1\3,1\4,1\5,1\6
REM DIRNAME "folder01","folder02","folder03","folder04","folder05","folder06"
TITLE ""
FILE "Disc4Track45.mp3" MP3
  TRACK 01 AUDIO
    TITLE "3:cjc161_07484"
    INDEX 01 00:00:00
  TRACK 02 AUDIO
    TITLE "4:cjc161_07485"
    INDEX 01 00:01:10
  TRACK 03 AUDIO
    TITLE "5:cjc161_07486"
    INDEX 01 00:03:09
  TRACK 04 AUDIO
    TITLE "6:cjc161_07487"
    INDEX 01 00:04:28
  TRACK 05 AUDIO
    TITLE "0:"
    INDEX 01 00:08:06
  TRACK 06 AUDIO
    TITLE "3:cjc161_07488"
    INDEX 01 00:08:37
  TRACK 07 AUDIO
    TITLE "4:cjc161_07489"
    INDEX 01 00:09:64
  TRACK 08 AUDIO
    TITLE "5:cjc161_07490"
    INDEX 01 00:11:43
  TRACK 09 AUDIO
    TITLE "6:cjc161_07491"
    INDEX 01 00:12:68
  TRACK 10 AUDIO
    TITLE "0:"
    INDEX 01 00:16:52
  TRACK 11 AUDIO
    TITLE "3:cjc161_07492"
    INDEX 01 00:17:09
  TRACK 12 AUDIO
    TITLE "4:cjc161_07493"
    INDEX 01 00:18:40
  TRACK 13 AUDIO
    TITLE "5:cjc161_07494"
    INDEX 01 00:21:01
  TRACK 14 AUDIO
    TITLE "6:cjc161_07495"
    INDEX 01 00:22:31
  TRACK 15 AUDIO
    TITLE "0:"
    INDEX 01 00:25:49
  TRACK 16 AUDIO
    TITLE "3:cjc161_07496"
    INDEX 01 00:26:08
  TRACK 17 AUDIO
    TITLE "4:cjc161_07497"
    INDEX 01 00:27:40
  TRACK 18 AUDIO
    TITLE "5:cjc161_07498"
    INDEX 01 00:28:52
  TRACK 19 AUDIO
    TITLE "6:cjc161_07499"
    INDEX 01 00:30:09
  TRACK 20 AUDIO
    TITLE "0:"
    INDEX 01 00:33:43
  TRACK 21 AUDIO
    TITLE "3:cjc161_07500"
    INDEX 01 00:33:74
  TRACK 22 AUDIO
    TITLE "4:cjc161_07501"
    INDEX 01 00:35:34
  TRACK 23 AUDIO
    TITLE "5:cjc161_07502"
    INDEX 01 00:36:71
  TRACK 24 AUDIO
    TITLE "6:cjc161_07503"
    INDEX 01 00:38:30
  TRACK 25 AUDIO
    TITLE "0:"
    INDEX 01 00:41:54
  TRACK 26 AUDIO
    TITLE "3:cjc161_07504"
    INDEX 01 00:42:09
  TRACK 27 AUDIO
    TITLE "4:cjc161_07505"
    INDEX 01 00:43:51
  TRACK 28 AUDIO
    TITLE "5:cjc161_07506"
    INDEX 01 00:44:62
  TRACK 29 AUDIO
    TITLE "0:"
    INDEX 01 00:46:30
  TRACK 30 AUDIO
    TITLE "3:cjc161_07507"
    INDEX 01 00:46:67
  TRACK 31 AUDIO
    TITLE "4:cjc161_07508"
    INDEX 01 00:48:07
  TRACK 32 AUDIO
    TITLE "5:cjc161_07509"
    INDEX 01 00:51:27
  TRACK 33 AUDIO
    TITLE "6:cjc161_07510"
    INDEX 01 00:52:38
  TRACK 34 AUDIO
    TITLE "0:"
    INDEX 01 00:55:68
  TRACK 35 AUDIO
    TITLE "3:cjc161_07511"
    INDEX 01 00:56:26
  TRACK 36 AUDIO
    TITLE "4:cjc161_07512"
    INDEX 01 00:57:38
  TRACK 37 AUDIO
    TITLE "5:cjc161_07513"
    INDEX 01 00:59:39
  TRACK 38 AUDIO
    TITLE "6:cjc161_07514"
    INDEX 01 01:00:50
  TRACK 39 AUDIO
    TITLE "0:"
    INDEX 01 01:03:11
  TRACK 40 AUDIO
    TITLE "3:cjc161_07515"
    INDEX 01 01:03:42
  TRACK 41 AUDIO
    TITLE "4:cjc161_07516"
    INDEX 01 01:04:53
  TRACK 42 AUDIO
    TITLE "5:cjc161_07517"
    INDEX 01 01:12:20
  TRACK 43 AUDIO
    TITLE "6:cjc161_07518"
    INDEX 01 01:13:33
  TRACK 44 AUDIO
    TITLE "0:"
    INDEX 01 01:16:43
  TRACK 45 AUDIO
    TITLE "3:cjc161_07519"
    INDEX 01 01:16:72
  TRACK 46 AUDIO
    TITLE "4:cjc161_07520"
    INDEX 01 01:18:16
  TRACK 47 AUDIO
    TITLE "5:cjc161_07521"
    INDEX 01 01:20:25
  TRACK 48 AUDIO
    TITLE "6:cjc161_07522"
    INDEX 01 01:21:44
  TRACK 49 AUDIO
    TITLE "0:"
    INDEX 01 01:23:19
  TRACK 50 AUDIO
    TITLE "3:cjc161_07523"
    INDEX 01 01:23:51
  TRACK 51 AUDIO
    TITLE "4:cjc161_07524"
    INDEX 01 01:24:70
  TRACK 52 AUDIO
    TITLE "5:cjc161_07525"
    INDEX 01 01:27:29
  TRACK 53 AUDIO
    TITLE "6:cjc161_07526"
    INDEX 01 01:28:48
  TRACK 54 AUDIO
    TITLE "0:"
    INDEX 01 01:30:45
  TRACK 55 AUDIO
    TITLE "3:cjc161_07527"
    INDEX 01 01:31:01
  TRACK 56 AUDIO
    TITLE "4:cjc161_07528"
    INDEX 01 01:32:28
  TRACK 57 AUDIO
    TITLE "5:cjc161_07529"
    INDEX 01 01:33:33
  TRACK 58 AUDIO
    TITLE "0:"
    INDEX 01 01:34:62
  TRACK 59 AUDIO
    TITLE "3:cjc161_07530"
    INDEX 01 01:35:23
  TRACK 60 AUDIO
    TITLE "4:cjc161_07531"
    INDEX 01 01:36:44
  TRACK 61 AUDIO
    TITLE "5:cjc161_07532"
    INDEX 01 01:40:59
  TRACK 62 AUDIO
    TITLE "0:"
    INDEX 01 01:42:03
  TRACK 63 AUDIO
    TITLE "3:cjc161_07533"
    INDEX 01 01:42:44
  TRACK 64 AUDIO
    TITLE "4:cjc161_07534"
    INDEX 01 01:43:75
  TRACK 65 AUDIO
    TITLE "5:cjc161_07535"
    INDEX 01 01:46:48
  TRACK 66 AUDIO
    TITLE "6:cjc161_07536"
    INDEX 01 01:48:06
  TRACK 67 AUDIO
    TITLE "0:"
    INDEX 01 01:51:12
  TRACK 68 AUDIO
    TITLE "3:cjc161_07537"
    INDEX 01 01:51:45
  TRACK 69 AUDIO
    TITLE "4:cjc161_07538"
    INDEX 01 01:52:60
  TRACK 70 AUDIO
    TITLE "5:cjc161_07539"
    INDEX 01 01:55:10
  TRACK 71 AUDIO
    TITLE "6:cjc161_07540"
    INDEX 01 01:56:25
  TRACK 72 AUDIO
    TITLE "0:"
    INDEX 01 02:00:64
